#!OML:ASF H:\BreakDance\Project 1\Capture day 1\Session 1\Male.ASF
:FULLY-SPECIFIED
:DEGREES
1532
root -4.78569 15.9667 1.10789 -125.99 -85.8066 123.782
lowerback -6.69393 1.25079 -0.725356
upperback 3.27061 1.91605 -3.36005
thorax 7.28922 0.972805 -2.88066
lowerneck -4.14701 -0.650592 -0.168638
upperneck 15.4995 -1.375 1.71703
head 5.35771 -0.672027 0.473306
rclavicle -2.01021e-014 1.90833e-014
rhumerus -29.6379 6.46738 -92.8939
rradius 70.3409
rwrist 20.2472
rhand -35.8617 -29.4487
rfingers 7.12502
rthumb -8.97633 660.762
lclavicle -2.01021e-014 1.90833e-014
lhumerus -28.8327 -9.8255 88.5159
lradius 67.717
lwrist -22.2783
lhand -33.5576 -748.024
lfingers 7.12502
lthumb -6.75255 1.84817
rfemur -15.4202 7.58234 7.54693
rtibia 46.4241
rfoot -25.1576 -19.1366
rtoes -12.7083
lfemur -9.74143 -0.775105 -15.7326
ltibia 40.6315
lfoot -33.2171 17.1241
ltoes -28.6685
1533
root -4.78644 15.9658 1.11161 -125.688 -85.7346 123.436
lowerback -6.75397 1.24987 -0.796216
upperback 3.27533 1.92442 -3.38585
thorax 7.32811 0.973851 -2.86616
lowerneck -4.10719 -0.667531 -0.148001
upperneck 15.434 -1.40551 1.7695
head 5.33113 -0.68261 0.484751
rclavicle -1.91827e-014 7.95139e-015
rhumerus -29.5967 6.43889 -92.9526
rradius 70.3406
rwrist 20.3572
rhand -35.7229 -29.3014
rfingers 7.12502
rthumb -8.84241 660.904
lclavicle -1.91827e-014 7.95139e-015
lhumerus -28.9295 -9.78635 88.4913
lradius 67.8119
lwrist -22.2847
lhand -33.5522 -748.096
lfingers 7.12502
lthumb -6.74727 1.776
rfemur -15.3926 7.51855 7.44199
rtibia 46.4394
rfoot -25.0801 -19.114
rtoes -12.9632
lfemur -9.68028 -0.720972 -15.8258
ltibia 40.6245
lfoot -33.2031 17.0934
ltoes -28.7003
1534
root -4.78669 15.9651 1.11522 -125.34 -85.6624 123.037
lowerback -6.7848 1.25258 -0.862567
upperback 3.27207 1.93656 -3.42039
thorax 7.34225 0.977038 -2.86334
lowerneck -4.03754 -0.68337 -0.138827
upperneck 15.3579 -1.43795 1.85275
head 5.2965 -0.693274 0.507712
rclavicle -8.49804e-015 8.74653e-015
rhumerus -29.5835 6.4343 -93.0396
rradius 70.3505
rwrist 20.2912
rhand -35.681 -29.1631
rfingers 7.12502
rthumb -8.80202 661.04
lclavicle -8.49804e-015 8.74653e-015
lhumerus -29.016 -9.78608 88.4522
lradius 67.8872
lwrist -22.2573
lhand -33.5198 -748.14
lfingers 7.12502
lthumb -6.71599 1.73332
rfemur -15.3572 7.45795 7.33497
rtibia 46.4504
rfoot -25.0069 -19.0852
rtoes -13.164
lfemur -9.61993 -0.685866 -15.9243
ltibia 40.6201
lfoot -33.2072 17.0811
ltoes -28.745
1535
root -4.78634 15.9647 1.11874 -125.214 -85.6108 122.852
lowerback -6.79614 1.26696 -0.88964
upperback 3.27303 1.96038 -3.45892
thorax 7.35169 0.988029 -2.88563
lowerneck -3.97747 -0.703759 -0.131563
upperneck 15.293 -1.47962 1.9555
head 5.26729 -0.707356 0.536462
rclavicle 3.01904e-015 1.59028e-015
rhumerus -29.5799 6.42473 -93.1438
rradius 70.3666
rwrist 20.1219
rhand -35.7249 -29.0598
rfingers 7.12502
rthumb -8.84431 661.145
lclavicle 3.01904e-015 1.59028e-015
lhumerus -29.072 -9.84702 88.399
lradius 67.9383
lwrist -22.1923
lhand -33.4649 -748.158
lfingers 7.12502
lthumb -6.66299 1.71678
rfemur -15.3105 7.42371 7.26215
rtibia 46.453
rfoot -24.9464 -19.0585
rtoes -13.2761
lfemur -9.56112 -0.670357 -15.9956
ltibia 40.6233
lfoot -33.2313 17.0796
ltoes -28.78
1536
root -4.78545 15.9644 1.12207 -125.492 -85.5891 123.068
lowerback -6.80826 1.29286 -0.868214
upperback 3.29067 1.99531 -3.48998
thorax 7.38138 1.00689 -2.92595
lowerneck -3.95679 -0.728275 -0.117437
upperneck 15.2492 -1.52615 2.04669
head 5.25134 -0.723737 0.559999
rclavicle -7.93896e-015 2.94201e-014
rhumerus -29.5592 6.40342 -93.2463
rradius 70.3836
rwrist 19.9524
rhand -35.7866 -29.0452
rfingers 7.12502
rthumb -8.90386 661.163
lclavicle -7.93896e-015 2.94201e-014
lhumerus -29.0833 -9.94742 88.3408
lradius 67.969
lwrist -22.1107
lhand -33.3963 -748.16
lfingers 7.12502
lthumb -6.59683 1.71689
rfemur -15.2566 7.42578 7.24255
rtibia 46.4457
rfoot -24.8979 -19.0425
rtoes -13.3183
lfemur -9.50492 -0.666166 -16.0213
ltibia 40.6368
lfoot -33.259 17.0863
ltoes -28.7795
1537
root -4.78422 15.9641 1.12512 -126.151 -85.5916 123.663
lowerback -6.83316 1.32257 -0.818075
upperback 3.32941 2.03281 -3.50139
thorax 7.44149 1.02825 -2.96119
lowerneck -3.98292 -0.753185 -0.107137
upperneck 15.2253 -1.56853 2.10793
head 5.24931 -0.739533 0.574849
rclavicle -1.24737e-014 -2.38542e-015
rhumerus -29.5065 6.38699 -93.3264
rradius 70.3967
rwrist 19.8333
rhand -35.826 -29.1509
rfingers 7.12502
rthumb -8.9419 661.059
lclavicle -1.24737e-014 -2.38542e-015
lhumerus -29.0481 -10.042 88.2952
lradius 67.9801
lwrist -22.0438
lhand -33.3315 -748.144
lfingers 7.12502
lthumb -6.53422 1.73519
rfemur -15.199 7.45381 7.26905
rtibia 46.4303
rfoot -24.8545 -19.0407
rtoes -13.3494
lfemur -9.45178 -0.667506 -16.0058
ltibia 40.66
lfoot -33.2848 17.0979
ltoes -28.726
1538
root -4.78294 15.9635 1.12786 -127.109 -85.609 124.551
lowerback -6.87001 1.34996 -0.758546
upperback 3.38639 2.06606 -3.48936
thorax 7.52729 1.04772 -2.97727
lowerneck -4.04259 -0.774876 -0.114975
upperneck 15.2122 -1.6011 2.14504
head 5.25618 -0.752514 0.585586
rclavicle -1.15047e-014 -2.14687e-014
rhumerus -29.4308 6.38583 -93.3781
rradius 70.4069
rwrist 19.7768
rhand -35.8269 -29.3706
rfingers 7.12502
rthumb -8.94273 660.839
lclavicle -1.15047e-014 -2.14687e-014
lhumerus -28.9886 -10.1046 88.2694
lradius 67.9868
lwrist -22.0044
lhand -33.287 -748.11
lfingers 7.12502
lthumb -6.49126 1.77072
rfemur -15.1357 7.4975 7.3284
rtibia 46.4111
rfoot -24.8205 -19.0457
rtoes -13.3785
lfemur -9.39504 -0.664627 -15.9595
ltibia 40.6889
lfoot -33.3053 17.1058
ltoes -28.6235
1539
root -4.78185 15.9627 1.13032 -128.314 -85.6329 125.679
lowerback -6.90435 1.37346 -0.697112
upperback 3.45052 2.09306 -3.45893
thorax 7.61837 1.06392 -2.97574
lowerneck -4.10982 -0.791838 -0.143495
upperneck 15.1972 -1.62369 2.17379
head 5.26372 -0.762098 0.597681
rclavicle -2.14936e-014 4.77083e-015
rhumerus -29.3503 6.41012 -93.4114
rradius 70.4185
rwrist 19.7427
rhand -35.7859 -29.6581
rfingers 7.12502
rthumb -8.90325 660.55
lclavicle -2.14936e-014 4.77083e-015
lhumerus -28.9316 -10.1341 88.2578
lradius 68.0024
lwrist -21.9944
lhand -33.279 -748.056
lfingers 7.12502
lthumb -6.48353 1.82457
rfemur -15.0672 7.55276 7.41006
rtibia 46.3936
rfoot -24.802 -19.0485
rtoes -13.3859
lfemur -9.32707 -0.645169 -15.8904
ltibia 40.7176
lfoot -33.3128 17.1067
ltoes -28.4991
1540
root -4.78086 15.9618 1.13257 -129.549 -85.6508 126.832
lowerback -6.92006 1.39064 -0.649448
upperback 3.50778 2.11163 -3.42104
thorax 7.69003 1.07506 -2.95984
lowerneck -4.15393 -0.805953 -0.186682
upperneck 15.1609 -1.64067 2.20636
head 5.26075 -0.769744 0.613862
rclavicle -7.70291e-016 -1.03368e-014
rhumerus -29.283 6.45269 -93.4336
rradius 70.4386
rwrist 19.699
rhand -35.7308 -29.9339
rfingers 7.12502
rthumb -8.85008 660.272
lclavicle -7.70291e-016 -1.03368e-014
lhumerus -28.899 -10.139 88.2524
lradius 68.035
lwrist -22.0123
lhand -33.3148 -747.983
lfingers 7.12502
lthumb -6.51814 1.89712
rfemur -14.9984 7.60618 7.48955
rtibia 46.3824
rfoot -24.796 -19.0426
rtoes -13.3911
lfemur -9.24854 -0.606783 -15.8199
ltibia 40.7408
lfoot -33.304 17.0981
ltoes -28.3841
1541
root -4.77981 15.9608 1.13462 -130.499 -85.6462 127.701
lowerback -6.91383 1.39694 -0.643587
upperback 3.54874 2.11855 -3.386
thorax 7.72938 1.07817 -2.92524
lowerneck -4.16116 -0.814967 -0.226124
upperneck 15.0957 -1.64917 2.23315
head 5.24237 -0.773848 0.628342
rclavicle 7.35503e-015 1.03368e-014
rhumerus -29.2442 6.49792 -93.4484
rradius 70.4751
rwrist 19.6627
rhand -35.6719 -30.0918
rfingers 7.12502
rthumb -8.79321 660.111
lclavicle 7.35503e-015 1.03368e-014
lhumerus -28.9061 -10.1208 88.2463
lradius 68.0911
lwrist -22.048
lhand -33.3727 -747.9
lfingers 7.12502
lthumb -6.57406 1.97793
rfemur -14.936 7.64749 7.53347
rtibia 46.3805
rfoot -24.8027 -19.0188
rtoes -13.3961
lfemur -9.16568 -0.557845 -15.7799
ltibia 40.756
lfoot -33.2847 17.0865
ltoes -28.3041
1542
root -4.7786 15.9596 1.13646 -131.012 -85.6149 128.14
lowerback -6.89318 1.38895 -0.692328
upperback 3.56972 2.11088 -3.35716
thorax 7.73633 1.07116 -2.86858
lowerneck -4.14153 -0.815696 -0.246768
upperneck 15.0192 -1.64509 2.23982
head 5.21544 -0.772442 0.634317
rclavicle 7.45443e-015 1.74931e-014
rhumerus -29.2391 6.54809 -93.458
rradius 70.5276
rwrist 19.6514
rhand -35.6172 -30.0565
rfingers 7.12502
rthumb -8.74038 660.144
lclavicle 7.45443e-015 1.74931e-014
lhumerus -28.9548 -10.0768 88.2357
lradius 68.1684
lwrist -22.0816
lhand -33.4185 -747.824
lfingers 7.12502
lthumb -6.61823 2.05239
rfemur -14.8857 7.67122 7.5283
rtibia 46.3874
rfoot -24.819 -18.9715
rtoes -13.3737
lfemur -9.08846 -0.511044 -15.7841
ltibia 40.7637
lfoot -33.2709 17.0818
ltoes -28.2754
